<?xml version="1.0" standalone="no"?>
<!DOCTYPE svg PUBLIC "-//W3C//DTD SVG 20010904//EN"
 "http://www.w3.org/TR/2001/REC-SVG-20010904/DTD/svg10.dtd">
<svg version="1.0" xmlns="http://www.w3.org/2000/svg"
 width="359.000000pt" height="359.000000pt" viewBox="0 0 359.000000 359.000000"
 preserveAspectRatio="xMidYMid meet">
<metadata>
Created by potrace 1.11, written by Peter Selinger 2001-2013
</metadata>
<g transform="translate(0.000000,359.000000) scale(0.100000,-0.100000)"
fill="#000000" stroke="none">
<path d="M1560 3576 c-3 -2 -30 -7 -60 -11 -137 -17 -356 -89 -514 -170 -99
-50 -251 -145 -291 -183 -11 -9 -33 -28 -50 -40 -89 -69 -305 -303 -305 -330
0 -6 -4 -12 -9 -14 -12 -4 -100 -146 -140 -227 -75 -148 -141 -348 -171 -521
-16 -90 -18 -435 -3 -547 55 -409 282 -826 594 -1092 98 -83 106 -89 183 -142
146 -98 332 -185 504 -235 90 -26 102 -28 226 -48 79 -13 481 -15 536 -3 14 3
41 8 60 11 69 10 233 57 323 92 353 136 668 396 873 720 49 77 74 126 139 269
33 71 78 219 100 330 22 108 24 143 24 360 -1 285 -15 381 -90 595 -52 149
-176 381 -259 484 -140 175 -282 308 -440 411 -202 133 -370 205 -610 262 -94
23 -131 26 -360 30 -141 2 -258 2 -260 -1z m367 -522 c-3 -3 -12 -4 -19 -1 -8
3 -5 6 6 6 11 1 17 -2 13 -5z m100 -10 c-3 -3 -12 -4 -19 -1 -8 3 -5 6 6 6 11
1 17 -2 13 -5z m148 -34 c13 -5 14 -9 5 -9 -8 0 -24 4 -35 9 -13 5 -14 9 -5 9
8 0 24 -4 35 -9z m70 -24 c19 -8 35 -17 35 -20 0 -5 -71 22 -79 30 -9 8 11 4
44 -10z m240 -124 c39 -24 72 -48 75 -52 3 -4 12 -11 22 -16 54 -30 206 -196
275 -299 47 -71 116 -205 110 -211 -3 -3 -26 38 -53 90 -26 53 -51 96 -56 96
-4 0 -8 5 -8 11 0 19 -98 140 -174 214 -90 89 -192 164 -292 216 -44 23 -83
45 -89 51 -19 18 120 -55 190 -100z m505 -632 c0 -13 -1 -13 -10 0 -5 8 -10
22 -10 30 0 13 1 13 10 0 5 -8 10 -22 10 -30z m34 -100 c9 -36 19 -78 22 -95
2 -16 7 -40 9 -52 3 -13 2 -23 -3 -23 -5 0 -9 6 -9 13 -1 35 -31 172 -50 224
-4 12 -3 15 4 8 6 -5 18 -39 27 -75z m37 -197 c0 -10 1 -35 3 -55 2 -21 0 -38
-4 -38 -3 0 -7 21 -9 47 -1 26 -4 50 -7 55 -3 4 0 8 5 8 6 0 11 -8 12 -17z m3
-190 c-4 -120 -15 -203 -26 -203 -6 0 -7 8 -3 18 9 23 21 145 20 214 -1 31 2
55 6 53 3 -3 5 -39 3 -82z m-39 -285 c-45 -142 -122 -311 -172 -377 -7 -9 -29
-39 -50 -68 -123 -165 -300 -303 -511 -397 -35 -15 -65 -26 -67 -24 -2 2 26
17 63 33 213 93 377 222 516 410 59 78 116 182 169 305 9 19 26 71 38 114 13
44 25 74 27 68 2 -7 -4 -36 -13 -64z m-890 -898 c-27 -12 -43 -12 -25 0 8 5
22 9 30 9 10 0 8 -3 -5 -9z m-198 -36 c-3 -3 -12 -4 -19 -1 -8 3 -5 6 6 6 11
1 17 -2 13 -5z"/>
</g>
</svg>
